<?xml version="1.0" encoding="utf-8"?>
<!-- Generator: Adobe Illustrator 26.3.1, SVG Export Plug-In . SVG Version: 6.00 Build 0)  -->
<svg version="1.1"
	 id="svg2" xmlns:sodipodi="http://sodipodi.sourceforge.net/DTD/sodipodi-0.dtd" xmlns:rdf="http://www.w3.org/1999/02/22-rdf-syntax-ns#" xmlns:svg="http://www.w3.org/2000/svg" xmlns:cc="http://creativecommons.org/ns#" xmlns:inkscape="http://www.inkscape.org/namespaces/inkscape" xmlns:dc="http://purl.org/dc/elements/1.1/"
	 xmlns="http://www.w3.org/2000/svg" xmlns:xlink="http://www.w3.org/1999/xlink" x="0px" y="0px" viewBox="0 0 500 300"
	 style="enable-background:new 0 0 500 300;" xml:space="preserve">
<style type="text/css">
	.st0{fill:#3775BE;}
	.st1{fill:none;stroke:#FFFFFF;stroke-width:6;stroke-linecap:round;stroke-linejoin:round;}
	.st2{fill:#E7271A;}
	.st3{enable-background:new    ;}
	.st4{fill:#252525;}
</style>
<sodipodi:namedview  bordercolor="#666666" borderopacity="1" gridtolerance="10" guidetolerance="10" id="namedview4" inkscape:current-layer="svg2" inkscape:cx="324.90417" inkscape:cy="144.79585" inkscape:pageopacity="0" inkscape:pageshadow="2" inkscape:window-height="1056" inkscape:window-maximized="1" inkscape:window-width="1855" inkscape:window-x="65" inkscape:window-y="24" inkscape:zoom="1.9876191" objecttolerance="10" pagecolor="#ffffff" showgrid="false">
	</sodipodi:namedview>
<path id="path4146" sodipodi:nodetypes="zzccssz" inkscape:connector-curvature="0" class="st0" d="M127.1,239.9
	c-35.7-0.4-73.2-21.6-84.9-45.2s-11.3-27-10.5-43.8c-2.2-46.5,37.9-72.6,78.5-86.9c45.9-18.2,94.3-14.5,102.4,34.1
	c3.6,21.5,7.5,56.4,0.6,80.1C200.2,223.7,162.8,240.2,127.1,239.9z"/>
<path id="path4144" class="st1" d="M149.4,176v-44.7l35.3,45.4v-45.4 M102.9,131.3V162c0,0,0.1,14.7,15.1,14.7s15.1-14.7,15.1-14.7
	v-30.7 M61.9,154.4h20.4 M61.6,176.3v-45H89"/>
<path id="path4149" sodipodi:nodetypes="zzzzzz" inkscape:connector-curvature="0" class="st2" d="M200.5,234.5
	c-3-6.1,3.7-15.5,8.7-17.9s10.1-3.8,14.2-1.1c4.1,2.7,6.6,7.3,5.9,12.7c-0.8,5.4-6.3,12.2-12.6,13.7S203.5,240.6,200.5,234.5z"/>
<g class="st3">
	<path class="st4" d="M263.4,155.3v-28.6h17.3v4.8h-12.2v6.8H279v4.8h-10.5v12.1H263.4z"/>
	<path class="st4" d="M284.1,155.3v-28.6h10.7c2.7,0,4.7,0.3,5.9,0.8c1.2,0.5,2.2,1.4,2.9,2.7c0.7,1.3,1.1,2.8,1.1,4.5
		c0,2.1-0.6,3.9-1.7,5.3c-1.1,1.4-2.8,2.3-5,2.6c1.1,0.7,2,1.5,2.7,2.4c0.7,0.9,1.7,2.4,2.9,4.6l3.1,5.6h-6.1L297,149
		c-1.3-2.2-2.2-3.6-2.7-4.2s-1-1-1.5-1.2c-0.5-0.2-1.4-0.3-2.6-0.3h-1v11.9H284.1z M289.2,138.8h3.8c2.4,0,4-0.1,4.6-0.4
		c0.6-0.2,1.1-0.6,1.4-1.2c0.3-0.6,0.5-1.3,0.5-2.1c0-1-0.2-1.7-0.7-2.3c-0.5-0.6-1.1-1-1.9-1.1c-0.4-0.1-1.7-0.1-3.7-0.1h-4V138.8z
		"/>
	<path class="st4" d="M331.5,155.3h-5.5l-2.2-6.5h-10.1l-2.1,6.5h-5.4l9.8-28.6h5.4L331.5,155.3z M322.1,144l-3.5-10.6l-3.4,10.6
		H322.1z"/>
	<path class="st4" d="M333.5,155.3v-28.6h5l10.3,19.1v-19.1h4.7v28.6h-5.1l-10.2-18.6v18.6H333.5z"/>
	<path class="st4" d="M374.2,144.8l4.9,1.8c-0.8,3.1-2,5.4-3.8,7s-4,2.3-6.7,2.3c-3.3,0-6.1-1.3-8.3-3.9c-2.2-2.6-3.2-6.1-3.2-10.6
		c0-4.8,1.1-8.5,3.2-11.1c2.2-2.6,5-3.9,8.5-3.9c3.1,0,5.6,1,7.5,3.1c1.1,1.2,2,3,2.6,5.3l-5,1.4c-0.3-1.5-0.9-2.7-1.9-3.5
		c-0.9-0.9-2.1-1.3-3.4-1.3c-1.9,0-3.4,0.8-4.5,2.3c-1.2,1.5-1.7,4-1.7,7.4c0,3.6,0.6,6.2,1.7,7.7c1.1,1.5,2.6,2.3,4.5,2.3
		c1.4,0,2.5-0.5,3.5-1.5C373.1,148.4,373.8,146.8,374.2,144.8z"/>
	<path class="st4" d="M382.7,155.3v-28.6h18.7v4.8h-13.6v6.3h12.7v4.8h-12.7v7.8h14.1v4.8H382.7z"/>
</g>
<g class="st3">
	<path class="st4" d="M280.1,168.6h3.3v16.5c0,2.9-0.3,5.2-0.9,6.8c-0.6,1.7-1.6,3.1-3.1,4.1c-1.5,1.1-3.5,1.6-5.9,1.6
		c-2.4,0-4.3-0.5-5.8-1.4c-1.5-0.9-2.6-2.3-3.2-4s-1-4.1-1-7.2v-16.5h3.3v16.5c0,2.5,0.2,4.3,0.6,5.5c0.4,1.2,1.1,2.1,2.1,2.7
		c1,0.6,2.2,1,3.6,1c2.5,0,4.2-0.6,5.2-1.9c1-1.3,1.6-3.7,1.6-7.3V168.6z"/>
	<path class="st4" d="M289.5,197.2v-28.6h3.4l13.2,22.4v-22.4h3.2v28.6H306l-13.2-22.5v22.5H289.5z"/>
	<path class="st4" d="M316.2,197.2v-28.6h3.3v28.6H316.2z"/>
	<path class="st4" d="M333.3,197.2l-9.8-28.6h3.6l6.6,20.8c0.5,1.7,1,3.2,1.3,4.7c0.4-1.6,0.8-3.1,1.4-4.7l6.8-20.8h3.4l-9.9,28.6
		H333.3z"/>
	<path class="st4" d="M350.2,197.2v-28.6h18.2v3.4h-14.9v8.8h13.9v3.4h-13.9v9.7h15.5v3.4H350.2z"/>
	<path class="st4" d="M374.3,197.2v-28.6h11.2c2.2,0,4,0.3,5.1,0.8c1.2,0.5,2.1,1.4,2.8,2.7c0.7,1.3,1,2.7,1,4.3
		c0,2-0.6,3.7-1.7,5.1c-1.2,1.4-2.9,2.3-5.4,2.7c0.9,0.5,1.6,1,2,1.4c1,1,1.9,2.3,2.8,3.8l4.4,7.8h-4.2l-3.3-5.9
		c-1-1.7-1.8-3-2.4-3.9s-1.2-1.5-1.7-1.9s-1-0.6-1.5-0.8c-0.4-0.1-1-0.1-1.9-0.1h-3.9v12.7H374.3z M377.7,181.2h7.2
		c1.5,0,2.7-0.2,3.6-0.5c0.9-0.4,1.5-0.9,2-1.7c0.4-0.8,0.7-1.6,0.7-2.6c0-1.4-0.4-2.5-1.3-3.3c-0.9-0.9-2.2-1.3-4.1-1.3h-8V181.2z"
		/>
	<path class="st4" d="M399.2,188l3.1-0.3c0.1,1.4,0.5,2.6,1,3.5c0.5,0.9,1.4,1.7,2.5,2.2c1.1,0.6,2.4,0.8,3.9,0.8
		c1.3,0,2.4-0.2,3.4-0.6c1-0.4,1.7-1,2.2-1.8c0.5-0.7,0.7-1.6,0.7-2.4c0-0.9-0.2-1.7-0.7-2.3c-0.5-0.7-1.2-1.2-2.3-1.7
		c-0.7-0.3-2.2-0.8-4.5-1.4c-2.3-0.6-3.9-1.2-4.9-1.8c-1.2-0.7-2.1-1.6-2.7-2.7c-0.6-1.1-0.9-2.2-0.9-3.6c0-1.4,0.4-2.8,1.1-4
		s1.8-2.2,3.2-2.9c1.4-0.7,2.9-1,4.6-1c1.9,0,3.5,0.3,4.9,1c1.4,0.7,2.5,1.7,3.3,3c0.8,1.3,1.2,2.8,1.2,4.5l-3.2,0.3
		c-0.2-1.8-0.8-3.2-1.7-4.1c-1-0.9-2.5-1.4-4.4-1.4c-2,0-3.5,0.4-4.4,1.3c-0.9,0.8-1.4,1.8-1.4,3c0,1,0.3,1.9,1,2.5
		c0.6,0.7,2.3,1.3,5,2s4.6,1.3,5.6,1.8c1.5,0.8,2.5,1.7,3.2,2.9c0.7,1.2,1,2.5,1,4.1c0,1.5-0.4,3-1.2,4.3c-0.8,1.3-1.9,2.4-3.3,3.1
		s-3.1,1.1-4.9,1.1c-2.3,0-4.2-0.4-5.7-1.1s-2.8-1.9-3.6-3.4C399.7,191.6,399.3,189.9,399.2,188z"/>
	<path class="st4" d="M425,197.2v-28.6h3.3v28.6H425z"/>
	<path class="st4" d="M441.3,197.2V172H433v-3.4h20v3.4h-8.3v25.2H441.3z"/>
	<path class="st4" d="M457.1,197.2v-28.6h18.2v3.4h-14.9v8.8h13.9v3.4h-13.9v9.7h15.5v3.4H457.1z M464,166.9l2.3-5.5h4.1l-3.8,5.5
		H464z"/>
</g>
<g class="st3">
	<path class="st4" d="M263.5,239.1v-28.6h3.4l13.2,22.4v-22.4h3.2v28.6h-3.4l-13.2-22.5v22.5H263.5z"/>
	<path class="st4" d="M306.1,210.5h3.3v16.5c0,2.9-0.3,5.2-0.9,6.8c-0.6,1.7-1.6,3.1-3.1,4.1c-1.5,1.1-3.5,1.6-5.9,1.6
		c-2.4,0-4.3-0.5-5.8-1.4c-1.5-0.9-2.6-2.3-3.2-4s-1-4.1-1-7.2v-16.5h3.3V227c0,2.5,0.2,4.3,0.6,5.5c0.4,1.2,1.1,2.1,2.1,2.7
		c1,0.6,2.2,1,3.6,1c2.5,0,4.2-0.6,5.2-1.9c1-1.3,1.6-3.7,1.6-7.3V210.5z"/>
	<path class="st4" d="M315.5,239.1v-28.6h5l6,20.2c0.5,1.9,1,3.3,1.2,4.2c0.3-1,0.7-2.6,1.3-4.6l6-19.9h4.5v28.6h-3.2v-23.9
		l-7.3,23.9h-3l-7.3-24.3v24.3H315.5z"/>
	<path class="st4" d="M345.7,239.1v-28.6h18.2v3.4H349v8.8H363v3.4H349v9.7h15.5v3.4H345.7z M352.5,208.8l2.3-5.5h4.1l-3.8,5.5
		H352.5z"/>
	<path class="st4" d="M369.8,239.1v-28.6h11.2c2.2,0,4,0.3,5.1,0.8c1.2,0.5,2.1,1.4,2.8,2.7c0.7,1.3,1,2.7,1,4.3
		c0,2-0.6,3.7-1.7,5.1c-1.2,1.4-2.9,2.3-5.4,2.7c0.9,0.5,1.6,1,2,1.4c1,1,1.9,2.3,2.8,3.8l4.4,7.8h-4.2l-3.3-5.9
		c-1-1.7-1.8-3-2.4-3.9s-1.2-1.5-1.7-1.9s-1-0.6-1.5-0.8c-0.4-0.1-1-0.1-1.9-0.1h-3.9v12.7H369.8z M373.1,223.2h7.2
		c1.5,0,2.7-0.2,3.6-0.5c0.9-0.4,1.5-0.9,2-1.7c0.4-0.8,0.7-1.6,0.7-2.6c0-1.4-0.4-2.5-1.3-3.3c-0.9-0.9-2.2-1.3-4.1-1.3h-8V223.2z"
		/>
	<path class="st4" d="M396.4,239.1v-28.6h3.3v28.6H396.4z"/>
	<path class="st4" d="M425.3,236.1c1.5,1.2,3,2.1,4.3,2.7l-1,2.6c-1.8-0.7-3.6-1.9-5.4-3.5c-1.9,1.2-3.9,1.8-6.2,1.8
		c-2.3,0-4.3-0.6-6.2-1.9c-1.9-1.2-3.3-3-4.3-5.3c-1-2.3-1.5-4.8-1.5-7.6c0-2.8,0.5-5.4,1.5-7.7c1-2.3,2.4-4.1,4.3-5.3
		c1.9-1.2,3.9-1.8,6.2-1.8c2.3,0,4.4,0.6,6.3,1.9c1.9,1.3,3.3,3,4.3,5.3c1,2.3,1.5,4.8,1.5,7.6c0,2.4-0.3,4.5-0.9,6.3
		C427.5,233,426.6,234.7,425.3,236.1z M418,231.2c1.9,0.6,3.5,1.5,4.8,2.7c2-2,2.9-5.1,2.9-9.1c0-2.3-0.3-4.3-1-6.1
		c-0.7-1.7-1.7-3.1-3-4c-1.3-1-2.8-1.4-4.5-1.4c-2.5,0-4.6,1-6.2,2.9s-2.5,4.8-2.5,8.6c0,3.7,0.8,6.6,2.4,8.6c1.6,2,3.7,3,6.2,3
		c1.2,0,2.3-0.3,3.4-0.8c-1-0.8-2.1-1.3-3.3-1.6L418,231.2z"/>
	<path class="st4" d="M450.8,210.5h3.3v16.5c0,2.9-0.3,5.2-0.9,6.8c-0.6,1.7-1.6,3.1-3.1,4.1c-1.5,1.1-3.5,1.6-5.9,1.6
		c-2.4,0-4.3-0.5-5.8-1.4c-1.5-0.9-2.6-2.3-3.2-4s-1-4.1-1-7.2v-16.5h3.3V227c0,2.5,0.2,4.3,0.6,5.5c0.4,1.2,1.1,2.1,2.1,2.7
		c1,0.6,2.2,1,3.6,1c2.5,0,4.2-0.6,5.2-1.9c1-1.3,1.6-3.7,1.6-7.3V210.5z"/>
	<path class="st4" d="M460.4,239.1v-28.6h18.2v3.4h-14.9v8.8h13.9v3.4h-13.9v9.7h15.5v3.4H460.4z"/>
</g>
</svg>
