<?xml version="1.0" encoding="UTF-8"?>
<svg width="64px" height="64px" viewBox="0 0 64 64" version="1.1" xmlns="http://www.w3.org/2000/svg" xmlns:xlink="http://www.w3.org/1999/xlink">
    <title>bbb iko blue/messages</title>
    <g id="bbb-iko-blue/messages" stroke="none" stroke-width="1" fill="none" fill-rule="evenodd">
        <path d="M24.8744,27.6255 C24.8744,28.9145 25.9194,29.9605 27.2094,29.9605 C28.4984,29.9605 29.5444,28.9145 29.5444,27.6255 C29.5444,26.3365 28.4984,25.2905 27.2094,25.2905 C25.9194,25.2905 24.8744,26.3365 24.8744,27.6255 M32.2589,27.6255 C32.2589,28.9145 33.3039,29.9605 34.5939,29.9605 C35.8829,29.9605 36.9289,28.9145 36.9289,27.6255 C36.9289,26.3365 35.8829,25.2905 34.5939,25.2905 C33.3039,25.2905 32.2589,26.3365 32.2589,27.6255 M39.8607,27.6255 C39.8607,28.9145 40.9057,29.9605 42.1957,29.9605 C43.4847,29.9605 44.5307,28.9145 44.5307,27.6255 C44.5307,26.3365 43.4847,25.2905 42.1957,25.2905 C40.9057,25.2905 39.8607,26.3365 39.8607,27.6255" id="Combined-Shape" fill="#0F4D9D"></path>
        <path d="M33.2999,46.4388 C30.9759,49.2828 27.4509,51.1078 23.4999,51.1078 C21.8279,51.1078 20.2349,50.7748 18.7729,50.1838 L18.7629,50.1988 C18.4049,49.9548 17.9439,49.8758 17.5199,50.0608 L10.5129,52.5488 L12.3099,45.2128 C12.4569,44.7908 12.3549,44.3588 12.1079,44.0248 L12.1309,43.9918 C11.3069,42.3128 10.8319,40.4328 10.8319,38.4398 C10.8319,35.2918 11.9999,32.4218 13.9079,30.2048 C15.4069,38.8888 23.3939,45.6718 33.2999,46.4388 M54.4439,31.2488 C55.2639,31.6538 56.2659,31.1788 56.4329,30.2798 C56.6149,29.2968 56.7149,28.2898 56.7149,27.2618 C56.7149,16.6408 47.0509,7.9998 35.1719,7.9998 C23.4709,7.9998 13.9389,16.3888 13.6559,26.7908 C10.3429,29.5928 8.2319,33.7708 8.2319,38.4398 C8.2319,40.7388 8.7579,42.9118 9.6769,44.8668 L7.0729,54.5108 C6.9019,54.9988 7.0369,55.5418 7.4169,55.8928 C7.6619,56.1208 7.9789,56.2388 8.3009,56.2388 C8.4769,56.2388 8.6549,56.2038 8.8229,56.1298 L18.0489,52.6688 C19.7449,53.3238 21.5749,53.7078 23.4999,53.7078 C28.9679,53.7078 33.7619,50.8108 36.4569,46.4778 C38.1779,46.3798 39.8399,46.0998 41.4279,45.6598 L54.3179,50.8858 C54.4879,50.9548 54.6649,50.9878 54.8419,50.9878 C55.2289,50.9878 55.6089,50.8268 55.8789,50.5268 C56.2719,50.0918 56.3499,49.4558 56.0749,48.9368 L49.3799,36.3408 C49.0179,35.6598 48.1729,35.4008 47.4919,35.7628 C46.8109,36.1248 46.5529,36.9698 46.9149,37.6508 L51.8069,46.8558 L41.9769,42.8698 C41.5419,42.6928 41.0709,42.7538 40.7029,42.9888 C38.9529,43.4658 37.0979,43.7318 35.1719,43.7318 C24.8329,43.7318 16.4209,36.3438 16.4209,27.2618 C16.4209,18.1798 24.8329,10.7918 35.1719,10.7918 C45.5109,10.7918 53.9229,18.1798 53.9229,27.2618 C53.9229,28.1238 53.8419,28.9678 53.6939,29.7928 C53.5859,30.3898 53.9009,30.9808 54.4439,31.2488" id="Fill-7" fill="#0F4D9D"></path>
    </g>
</svg>