<?xml version="1.0" encoding="UTF-8"?>
<svg width="64px" height="64px" viewBox="0 0 64 64" version="1.1" xmlns="http://www.w3.org/2000/svg" xmlns:xlink="http://www.w3.org/1999/xlink">
    <title>bbb iko blue/options video</title>
    <g id="bbb-iko-blue/options-video" stroke="none" stroke-width="1" fill="none" fill-rule="evenodd">
        <path d="M50.792,13 C54.669,13 57.822,16.153 57.822,20.029 L57.822,44.279 C57.822,48.155 54.669,51.309 50.792,51.309 L13.03,51.309 C9.153,51.309 6,48.155 6,44.279 L6,20.029 C6,16.153 9.153,13 13.03,13 Z M50.792,15.953 L13.03,15.953 C10.782,15.953 8.953,17.781 8.953,20.029 L8.953,44.279 C8.953,46.527 10.782,48.356 13.03,48.356 L50.792,48.356 C53.04,48.356 54.869,46.527 54.869,44.279 L54.869,20.029 C54.869,17.781 53.04,15.953 50.792,15.953 Z M25.8868,23.3982 C26.3508,23.1362 26.9188,23.1452 27.3748,23.4202 L39.9728,31.0222 C40.4158,31.2892 40.6868,31.7682 40.6868,32.2862 C40.6868,32.8032 40.4158,33.2832 39.9728,33.5502 L27.3748,41.1522 C27.1408,41.2932 26.8768,41.3642 26.6118,41.3642 C26.3618,41.3642 26.1118,41.3012 25.8868,41.1732 C25.4228,40.9122 25.1358,40.4202 25.1358,39.8882 L25.1358,24.6842 C25.1358,24.1512 25.4228,23.6602 25.8868,23.3982 Z M28.0888,27.3002 L28.0888,37.2722 L36.3528,32.2862 L28.0888,27.3002 Z" id="Combined-Shape" fill="#0F4D9D"></path>
    </g>
</svg>