<?xml version="1.0" encoding="UTF-8"?>
<svg width="64px" height="64px" viewBox="0 0 64 64" version="1.1" xmlns="http://www.w3.org/2000/svg" xmlns:xlink="http://www.w3.org/1999/xlink">
    <title>bbb iko blue/sondage</title>
    <g id="bbb-iko-blue/sondage" stroke="none" stroke-width="1" fill="none" fill-rule="evenodd">
        <path d="M56.151,10 C56.98,10 57.651,10.672 57.651,11.5 L57.651,29.386 C57.651,30.214 56.98,30.886 56.151,30.886 L7.5,30.886 C6.671,30.886 6,30.214 6,29.386 L6,11.5 C6,10.672 6.671,10 7.5,10 Z M54.651,13.001 L26.724,13.001 L26.724,27.886 L54.651,27.886 L54.651,13.001 Z M23.725,13 L9,13 L9,27.885 L23.725,27.885 L23.725,13 Z M19.2543,15.7275 C19.8403,15.1415 20.7893,15.1415 21.3753,15.7275 C21.9613,16.3135 21.9613,17.2635 21.3753,17.8485 L18.4173,20.8065 L21.3753,23.7645 C21.9613,24.3495 21.9613,25.2995 21.3753,25.8855 C21.0823,26.1785 20.6983,26.3245 20.3143,26.3245 C19.9303,26.3245 19.5473,26.1785 19.2543,25.8855 L16.2963,22.9275 L13.3383,25.8855 C13.0453,26.1785 12.6613,26.3245 12.2783,26.3245 C11.8943,26.3245 11.5103,26.1785 11.2173,25.8855 C10.6313,25.2995 10.6313,24.3495 11.2173,23.7645 L14.1753,20.8065 L11.2173,17.8485 C10.6313,17.2635 10.6313,16.3135 11.2173,15.7275 C11.8033,15.1415 12.7523,15.1415 13.3383,15.7275 L16.2963,18.6855 Z M42.949,34.109 C43.778,34.109 44.449,34.78 44.449,35.609 L44.449,53.494 C44.449,54.323 43.778,54.994 42.949,54.994 L7.5,54.994 C6.671,54.994 6,54.323 6,53.494 L6,35.609 C6,34.78 6.671,34.109 7.5,34.109 Z M41.449,37.109 L26.724,37.109 L26.724,51.994 L41.449,51.994 L41.449,37.109 Z M23.725,37.109 L9,37.109 L9,51.994 L23.725,51.994 L23.725,37.109 Z M19.0934,40.6669 C19.6494,40.0529 20.5984,40.0059 21.2124,40.5619 C21.8264,41.1179 21.8734,42.0669 21.3174,42.6809 L16.1054,48.4359 C15.8094,48.7629 15.4014,48.9289 14.9924,48.9289 C14.6404,48.9289 14.2874,48.8059 14.0034,48.5559 L10.4194,45.4069 C9.7964,44.8599 9.7354,43.9119 10.2824,43.2899 C10.8294,42.6669 11.7764,42.6069 12.3994,43.1529 L14.8734,45.3269 Z" id="Combined-Shape" fill="#0F4D9D"></path>
    </g>
</svg>