<?xml version="1.0" encoding="UTF-8"?>
<svg width="64px" height="64px" viewBox="0 0 64 64" version="1.1" xmlns="http://www.w3.org/2000/svg" xmlns:xlink="http://www.w3.org/1999/xlink">
    <title>bbb iko blue/tableau blanc</title>
    <g id="bbb-iko-blue/tableau-blanc" stroke="none" stroke-width="1" fill="none" fill-rule="evenodd">
        <path d="M9.618,17.13 L54.917,17.13 L54.917,12.618 L9.618,12.618 L9.618,17.13 Z M13.925,40.671 L51.294,40.671 L51.294,19.749 L13.925,19.749 L13.925,40.671 Z M56.226,10 L8.309,10 C7.586,10 7,10.586 7,11.309 L7,18.439 C7,19.162 7.586,19.748 8.309,19.748 L10.973,19.748 L10.973,42.147 C10.973,42.962 11.633,43.623 12.449,43.623 L31.283,43.623 L31.283,48.207 L26.031,51.83 C25.428,52.246 25.276,53.072 25.692,53.675 C25.949,54.048 26.364,54.248 26.785,54.248 C27.044,54.248 27.307,54.173 27.537,54.014 L32.561,50.549 L36.936,53.967 C37.512,54.419 38.347,54.317 38.797,53.739 C39.248,53.161 39.146,52.328 38.568,51.877 L33.936,48.257 L33.936,43.623 L52.77,43.623 C53.585,43.623 54.246,42.962 54.246,42.147 L54.246,19.748 L56.226,19.748 C56.949,19.748 57.535,19.162 57.535,18.439 L57.535,11.309 C57.535,10.586 56.949,10 56.226,10 L56.226,10 Z" id="Fill-1" fill="#0F4D9D"></path>
    </g>
</svg>