<?xml version="1.0" encoding="UTF-8"?>
<svg width="64px" height="64px" viewBox="0 0 64 64" version="1.1" xmlns="http://www.w3.org/2000/svg" xmlns:xlink="http://www.w3.org/1999/xlink">
    <title>bbb iko blue/televersement doc</title>
    <g id="bbb-iko-blue/televersement-doc" stroke="none" stroke-width="1" fill="none" fill-rule="evenodd">
        <path d="M23.312,22.9463 C24.141,22.9463 24.812,23.6183 24.812,24.4463 C24.812,25.2743 24.141,25.9463 23.312,25.9463 L14.976,25.9463 C12.78,25.9463 11,27.7263 11,29.9233 L11,50.8973 C11,53.0933 12.78,54.8743 14.976,54.8743 L49.308,54.8743 C51.504,54.8743 53.285,53.0933 53.285,50.8973 L53.285,29.9233 C53.285,27.7273 51.504,25.9463 49.308,25.9463 L40.973,25.9463 C40.144,25.9463 39.473,25.2743 39.473,24.4463 C39.473,23.6183 40.144,22.9463 40.973,22.9463 L49.308,22.9463 C53.161,22.9463 56.285,26.0703 56.285,29.9233 L56.285,50.8973 C56.285,54.7503 53.161,57.8743 49.308,57.8743 L14.976,57.8743 C11.123,57.8743 8,54.7503 8,50.8973 L8,29.9233 C8,26.0703 11.123,22.9463 14.976,22.9463 Z M31.1632,7.4222 C31.7262,6.8592 32.7222,6.8592 33.2842,7.4222 L42.7322,16.8702 C43.3182,17.4562 43.3182,18.4062 42.7322,18.9912 C42.1462,19.5772 41.1972,19.5772 40.6112,18.9912 L33.6422,12.0222 L33.6422,42.6452 C33.6422,43.4742 32.9712,44.1452 32.1422,44.1452 C31.3142,44.1452 30.6422,43.4742 30.6422,42.6452 L30.6422,12.1852 L23.6742,19.1542 C23.3812,19.4472 22.9972,19.5932 22.6132,19.5932 C22.2292,19.5932 21.8452,19.4472 21.5522,19.1542 C20.9672,18.5682 20.9672,17.6182 21.5522,17.0322 Z" id="Combined-Shape" fill="#0F4D9D"></path>
    </g>
</svg>