<svg xmlns="http://www.w3.org/2000/svg" width="856.05" height="508.069" viewBox="0 0 856.05 508.069"><g transform="translate(-300.755 -1016.62)"><text transform="translate(433 1371)" fill="#fff" font-size="39" font-family="Arvo"><tspan x="-189.135" y="37">La plateforme vidéo </tspan><tspan x="-273.019" y="85">de l&apos;enseignement supérieur</tspan></text><g transform="translate(510.671 1055.934)"><path d="M0,0H448.263V305.385H0Z" transform="translate(1.066 -0.934)" fill="none" fill-rule="evenodd"/><path d="M-100.64,597.034v-5.621c-.115-6.55-1.839-8.618-7.81-8.618-7.466,0-7.119,5.745-7.119,11.6v2.643ZM-130.5,595.31c-.689-15.273,7.121-24,21.823-24,20.789,0,22.969,10.792,22.969,28.478v8.733h-29.859v9.413c.113,8.5,3.328,10.112,7.808,10.112,5.514,0,7.121-4.022,6.892-12.18h14.93c.576,14.478-5.4,23.661-20.673,23.661-17.228,0-24.235-8.149-23.89-27.214V595.31M-63.868,616.2v4.558c0,3.706,1.2,6.971,6.026,6.971,3.53,0,5.079-3.179,5.079-6.454,0-5.42-4.477-7.488-8.437-9.9-4.649-2.662-8.607-5.161-11.449-8.436-2.754-3.265-4.39-7.229-4.39-12.908,0-12.142,7.319-18.337,19.025-18.337,13.17,0,19.884,8.781,19.2,20.923H-52.763c-.172-3.792,0-8.953-4.993-9.3-3.1-.258-4.907,1.465-5.251,4.3-.43,3.878,1.548,5.86,4.563,7.919,5.681,3.619,10.589,5.86,14.116,9.126s5.595,7.574,5.595,15.407c0,12.4-6.886,19.285-19.453,19.285-13.861,0-19.714-7.746-19.714-16.269V616.2h14.032m31.77-42.956H-16.95v48.72c0,3.1.949,5.764,5.251,5.764,3.96,0,5.165-3.437,5.165-6.2V573.248H8.617v46.738c0,10.935-4.907,19.371-20.4,19.371-12.825,0-20.314-6.109-20.314-19.371V573.248m64.484,27.807c2.839-.086,6.111.259,8.52-1.638,1.548-1.724,1.893-4.309,1.893-6.54,0-2.5-.259-6.291-2.839-7.488a19.7,19.7,0,0,0-5.94-.517H32.385ZM17.234,637.806V573.248H35.224c5.854,0,14.291.517,18.507,5.333,3.531,3.965,4.218,8.781,4.218,14.038,0,6.971-1.634,14.8-8.52,17.983-5.251,2.585-11.362,1.81-17.044,2.068v25.136H17.234" transform="translate(150.101 -558.943)" fill="#3871c1"/><path d="M87.325,106.661A42.272,42.272,0,0,0,68.117,142.1q0,1.357.084,2.687a54.731,54.731,0,0,0,75.5,48.607,61.15,61.15,0,0,1-86.383-20.932l0-.005a49.025,49.025,0,0,1,30.006-65.79Z" transform="translate(112.563 31.414)" fill="#3871c1" fill-rule="evenodd"/><path d="M33.89,0A42.272,42.272,0,0,0,14.682,35.434q0,1.357.084,2.687a54.832,54.832,0,0,0,55.01,52.717,54.352,54.352,0,0,0,20.494-4.11A61.15,61.15,0,0,1,3.887,65.8l0-.005A49.025,49.025,0,0,1,33.89,0Z" transform="matrix(-0.498, -0.867, 0.867, -0.498, 232.946, 236.199)" fill="#3871c1" fill-rule="evenodd"/><path d="M33.89,0A42.272,42.272,0,0,0,14.682,35.434q0,1.357.084,2.687a54.832,54.832,0,0,0,55.01,52.717,54.352,54.352,0,0,0,20.494-4.11A61.15,61.15,0,0,1,3.887,65.8l0-.005A49.025,49.025,0,0,1,33.89,0Z" transform="matrix(-0.505, 0.863, -0.863, -0.505, 284.301, 128.794)" fill="#3871c1" fill-rule="evenodd"/><path d="M1487.2,3016.521v52.842a4.777,4.777,0,0,1-4.777,4.777h-22.437a4.776,4.776,0,0,1-4.776-4.777v-106.52c0-23.045,5.742-40.932,16.775-53.12,11.156-12.33,27.8-19.044,50.073-19.044,20.881,0,37.248,6.5,48.459,18.789,11.058,12.119,17.179,30.064,17.179,53.615,0,22.412-6.271,39.865-16.728,51.767-10.694,12.181-25.8,18.706-43.595,18.706C1507.288,3033.558,1494.638,3025.7,1487.2,3016.521Zm68.747-53.917v-.244c-.04-16.779-4.329-28.854-12.672-35.742-5.382-4.443-12.4-6.6-20.735-6.6-11.12,0-20.033,3.268-26.1,10.206-6.3,7.2-9.484,18.1-9.484,32.621,0,21.461,9.827,41.376,33.649,41.376,10.483,0,19.322-3.257,25.49-10.06C1552.439,2987.164,1555.9,2976.613,1555.944,2962.6Zm286.511-55.07v-52.66a4.78,4.78,0,0,1,4.777-4.78h22.2a4.78,4.78,0,0,1,4.777,4.78v106.52c0,22.79-5.8,40.677-16.826,52.93-11.164,12.4-27.761,19.234-49.782,19.234-20.753,0-37.124-6.616-48.372-18.976-11.094-12.183-17.267-30.132-17.267-53.43,0-22.406,6.271-39.86,16.691-51.763,10.668-12.184,25.724-18.709,43.391-18.709C1822.7,2890.68,1835.219,2898.462,1842.455,2907.534Zm0,53.86c0-21.453-9.593-41.377-33.407-41.377-10.6,0-19.511,3.258-25.717,10.045-6.4,7-9.863,17.57-9.863,31.572,0,14.2,3.214,25.053,9.323,32.292,5.826,6.9,14.276,10.293,24.565,10.293,11.095,0,19.883-3.254,25.829-10.173C1839.38,2986.837,1842.455,2975.924,1842.455,2961.394Z" transform="translate(-1435.308 -2793.097)" fill="#ed184e" fill-rule="evenodd"/><path d="M-92.232,777c16.614-7.08,35.961-7.354,48.079-2.015,12.472,5.244,15.023,13.247,14.835,12.974.1-.085-7.2-2-16.943-.471-9.8,1.262-21.594,6.186-35.476,11.967-2.9,1.2-8.309,3.484-13.223,4.293a46.083,46.083,0,0,1-14.431.565,47.908,47.908,0,0,1-21.421-7.834c-10.277-7.024-13.324-14.707-13.371-14.613a101.077,101.077,0,0,0,17.815,2.721,60.429,60.429,0,0,0,16.523-1.054,44.289,44.289,0,0,0,8.128-2.411c2.776-.989,4.752-2.137,9.485-4.124" transform="translate(380.294 -741.81)" fill="#3871c1"/></g><g transform="translate(380.475 1418.5)"><ellipse cx="2.188" cy="2.188" rx="2.188" ry="2.188" transform="translate(40.489 0)" fill="#ffeb76"/><ellipse cx="12.587" cy="12.587" rx="12.587" ry="12.587" transform="translate(90.875 81.015)" fill="#ffeb76"/></g><g transform="translate(1022.342 1143.786)"><ellipse cx="19.7" cy="19.7" rx="19.7" ry="19.7" transform="translate(0 0)" fill="#ffce00"/><ellipse cx="10.949" cy="10.949" rx="10.949" ry="10.949" transform="translate(112.565 101.948)" fill="#ffce00"/><ellipse cx="6.564" cy="6.564" rx="6.564" ry="6.564" transform="translate(-556.864 224.638)" fill="#ffce00"/></g><g transform="translate(300.755 1009.613)"><ellipse cx="19.93" cy="19.93" rx="19.93" ry="19.93" transform="translate(81.209 7.007)" fill="#f4ebc1"/><ellipse cx="2.95" cy="2.95" rx="2.95" ry="2.95" transform="translate(180.126 7.007)" fill="#f4ebc1"/><ellipse cx="10.337" cy="10.337" rx="10.337" ry="10.337" transform="translate(0 249.123)" fill="#f4ebc1"/><ellipse cx="3.694" cy="3.694" rx="3.694" ry="3.694" transform="translate(138.981 212.989)" fill="#f4ebc1"/><g transform="translate(479 355.562)"><ellipse cx="2.214" cy="24.36" rx="2.214" ry="24.36" transform="translate(301.154)" fill="#f4ebc1"/><ellipse cx="24.36" cy="2.214" rx="24.36" ry="2.214" transform="translate(279.008 22.146)" fill="#f4ebc1"/></g><ellipse cx="10.151" cy="0.921" rx="10.151" ry="0.921" transform="matrix(0.708, -0.706, 0.706, 0.708, 44.072, 362.047)" fill="#f4ebc1"/><ellipse cx="10.151" cy="0.921" rx="10.151" ry="0.921" transform="matrix(0.708, 0.706, -0.706, 0.708, 45.366, 347.744)" fill="#f4ebc1"/><g transform="translate(783 -334.809)"><ellipse cx="10.151" cy="0.921" rx="10.151" ry="0.921" transform="matrix(0.708, -0.706, 0.706, 0.708, 44.072, 362.047)" fill="#f4ebc1"/><ellipse cx="10.151" cy="0.921" rx="10.151" ry="0.921" transform="matrix(0.708, 0.706, -0.706, 0.708, 45.366, 347.744)" fill="#f4ebc1"/></g><ellipse cx="8.255" cy="0.744" rx="8.255" ry="0.744" transform="translate(269.513 437.532)" fill="#f4ebc1"/><ellipse cx="0.744" cy="8.246" rx="0.744" ry="8.246" transform="translate(277.024 430.03)" fill="#f4ebc1"/><g transform="translate(90 -167.008)"><path d="M413.049,237.993c-5.607,0-10.151-.407-10.151-.921s4.553-.93,10.169-.921c5.589,0,10.142.407,10.142.921C423.192,237.585,418.656,238,413.049,237.993Z" transform="translate(-16.274 -32.974)" fill="#f4ebc1"/><ellipse cx="0.921" cy="10.151" rx="0.921" ry="10.151" transform="translate(395.854 193.946)" fill="#f4ebc1"/></g><g transform="translate(293.836 -57.008)"><path d="M422.79,239.761c-10.987,0-19.892-.8-19.892-1.8.018-.989,8.922-1.822,19.927-1.8,10.952,0,19.874.8,19.874,1.8C442.663,238.961,433.776,239.776,422.79,239.761Z" transform="translate(-16.274 -24.117)" fill="#f4ebc1"/><ellipse cx="1.805" cy="19.892" rx="1.805" ry="19.892" transform="translate(404.711 193.946)" fill="#f4ebc1"/></g></g><g transform="translate(306.74 1412.075)"><circle cx="43.518" cy="43.518" r="43.518" transform="translate(11.72 12.413)" fill="#9fbdc2"/><circle cx="34.515" cy="34.515" r="34.515" transform="translate(12.693 18.091)" fill="#9fcacc"/><circle cx="27.887" cy="27.887" r="27.887" transform="translate(13.673 21.886)" fill="#add7db"/><circle cx="1.892" cy="1.892" r="1.892" transform="translate(6.044 6.736)" fill="#f3d55b"/><circle cx="1.892" cy="1.892" r="1.892" transform="translate(2.26 89.987)" fill="#ecf0f1"/><path d="M37.389,99.432c-3.355,7.672-5.994,9.534-7.044,9.387-1.226-.163-3.822-3.587-4.861-15.369C24.562,83,25.111,69.326,27.03,54.931,31.3,22.881,40.115,3.291,44.344,3.792c.982.131,2.927,2.382,4.172,9.841,1.285.308,2.543.677,3.775,1.1a1.854,1.854,0,0,0,.1-.88C51.044,5.056,48.576.54,44.843.042,34.518-1.322,26.292,31.816,23.278,54.432,21.323,69.1,20.769,83.07,21.713,93.783c1.048,11.888,3.784,18.209,8.13,18.788a4.858,4.858,0,0,0,.66.044c3.627,0,7.108-4.026,10.616-12.27a1.85,1.85,0,0,0,.1-1Q39.32,99.469,37.389,99.432Z" transform="translate(16.952)" fill="#ecf0f1"/></g></g></svg>